<svg width="31" height="34" viewBox="0 0 31 34" fill="none" xmlns="http://www.w3.org/2000/svg">
<path d="M30.9944 6.60262C30.1622 5.5133 29.0671 4.55736 27.7968 4.00159C27.7968 3.91266 27.7749 3.80151 27.753 3.69035C27.7749 3.40135 27.6434 2.95673 27.4025 2.77888C27.3806 2.75665 27.3587 2.77888 27.3587 2.80111V2.82334C27.3149 2.75665 27.293 2.68995 27.2492 2.62326C27.2273 2.5788 27.1397 2.5788 27.1397 2.64549C27.1397 2.66772 27.1397 2.68995 27.1397 2.71219C27.074 2.64549 27.0302 2.55657 26.9645 2.48988C26.9426 2.44541 26.8988 2.42318 26.8769 2.37872C26.7455 2.11195 26.5922 1.84518 26.4389 1.60063C26.395 1.53394 26.3074 1.55617 26.3074 1.62287C26.2636 1.5784 26.2198 1.53394 26.176 1.51171C26.176 1.51171 26.176 1.51171 26.1541 1.48948C26.1322 1.48948 26.1322 1.46725 26.1103 1.46725C26.0446 1.42279 25.9789 1.51171 26.0227 1.5784C25.9789 1.53394 25.8475 1.37832 25.8037 1.33386C25.6942 1.24494 25.5847 1.17824 25.4752 1.08932C25.4314 1.06709 25.3876 1.11155 25.3876 1.15601C25.2343 1.04486 25.059 0.933703 24.9057 0.844779C24.8619 0.822548 24.7743 0.86701 24.7962 0.933703V0.955934C24.621 0.844779 24.4239 0.733624 24.2706 0.622469C24.2268 0.600238 24.183 0.622469 24.1611 0.666931C23.9421 0.511314 23.7011 0.377927 23.4821 0.200079C23.4164 0.155617 23.3507 0.244541 23.3726 0.311234C23.3726 0.333465 23.3945 0.355696 23.3945 0.377928C23.1755 0.289003 22.9784 0.200079 22.7594 0.111155C22.7156 0.0889241 22.6498 0.155617 22.6717 0.200079C22.6937 0.244541 22.7156 0.289003 22.7375 0.333465C22.5622 0.289003 22.3651 0.244541 22.1899 0.200079C22.1242 0.177848 22.0804 0.244541 22.1023 0.311234C22.1023 0.333465 22.1242 0.333465 22.1242 0.355696C21.8614 0.311234 21.5986 0.244541 21.3357 0.22231C21.1605 0.0889241 20.9634 0.022231 20.7006 0C20.613 0 20.5911 0.111155 20.6349 0.155617C20.6568 0.177848 20.6787 0.200079 20.7006 0.22231C20.4816 0.177848 20.2407 0.155617 20.0216 0.111155C19.9778 0.111155 19.934 0.133386 19.934 0.200079C19.9559 0.266772 19.9559 0.333465 19.9997 0.377928C19.8245 0.333465 19.6493 0.289003 19.496 0.377928C19.3427 0.333465 19.1894 0.311234 19.0142 0.289003C18.9485 0.289003 18.9265 0.355696 18.9704 0.400159C18.9923 0.42239 19.0142 0.444621 19.0361 0.466852C18.7513 0.466852 18.4447 0.466852 18.16 0.489083C18.0943 0.489083 18.0505 0.578007 18.0943 0.622469C18.1162 0.666931 18.16 0.689162 18.1819 0.711393C17.941 0.689162 17.7001 0.666931 17.4591 0.6447C17.3934 0.6447 17.3496 0.733624 17.3934 0.778086C17.4153 0.800317 17.4372 0.800317 17.4372 0.822548C17.2839 0.86701 17.0868 0.889241 16.9116 0.889241C16.8459 0.889241 16.8459 0.955934 16.8897 1.0004C16.9992 1.08932 17.0211 1.11155 17.0649 1.15601C16.9116 1.15601 16.7802 1.15601 16.6269 1.15601C16.5831 1.15601 16.5612 1.20048 16.5612 1.24494C16.5831 1.33386 16.605 1.35609 16.6269 1.37832C16.4078 1.42279 16.1888 1.44502 15.9698 1.48948C15.926 1.48948 15.9041 1.55617 15.926 1.60063C15.9479 1.62287 15.9698 1.66733 15.9917 1.68956C15.8384 1.75625 15.6851 1.82294 15.5099 1.88964C15.4661 1.91187 15.4442 1.97856 15.488 2.00079C15.5318 2.04525 15.5756 2.06749 15.5975 2.11195C15.3566 2.13418 15.1375 2.2231 14.9623 2.42318C14.9404 2.44541 14.9404 2.51211 14.9623 2.53434C14.9842 2.55657 15.0061 2.5788 15.028 2.5788C14.809 2.66772 14.6119 2.73442 14.4148 2.84557C14.371 2.8678 14.371 2.95673 14.4367 2.97896C14.4586 2.97896 14.4805 2.97896 14.4805 3.00119C14.152 3.04565 13.8453 3.24573 13.5606 3.42358C13.5168 3.44581 13.5168 3.49027 13.5387 3.53473C13.473 3.5792 13.4073 3.62366 13.3197 3.64589C13.2759 3.66812 13.2759 3.75704 13.3416 3.77927C13.3635 3.77927 13.3854 3.77927 13.4073 3.80151C13.2978 3.89043 13.1883 3.95712 13.0569 4.00159C13.0131 4.02382 12.9912 4.06828 13.035 4.09051C13.1226 4.13497 12.7284 4.2239 12.6845 4.2239C12.6188 4.24613 12.6188 4.33505 12.6626 4.35728C12.7284 4.40174 12.7941 4.44621 12.8598 4.46844C12.7722 4.5129 12.6845 4.53513 12.5969 4.55736C12.5312 4.57959 12.5093 4.66852 12.5531 4.71298C12.6188 4.75744 12.6407 4.8019 12.6845 4.82413C12.5969 4.89083 12.5093 4.93529 12.3998 4.95752C12.3341 4.97975 12.3341 5.06867 12.3779 5.09091C12.3779 5.09091 12.3779 5.09091 12.3998 5.11314C12.356 5.13537 12.3341 5.13537 12.2903 5.1576C12.2684 5.1576 12.2465 5.17983 12.2465 5.20206C12.2465 5.22429 12.2465 5.24652 12.2246 5.26875C12.2246 5.29099 12.2246 5.31322 12.2684 5.33545C12.2903 5.33545 12.2903 5.33545 12.3122 5.35768C12.2684 5.35768 12.2246 5.37991 12.1808 5.37991C12.1151 5.37991 12.0494 5.37991 11.9837 5.37991C11.9837 5.35768 11.9837 5.35768 11.9837 5.33545C11.9837 5.31322 11.9399 5.29098 11.918 5.31322C11.918 5.33545 11.8961 5.35768 11.8961 5.37991C11.8742 5.37991 11.8523 5.40214 11.8304 5.40214C11.7866 5.42437 11.8085 5.46883 11.8304 5.49106C11.8523 5.49106 11.8523 5.5133 11.8742 5.5133C11.8523 5.60222 11.8523 5.69114 11.8742 5.78007C11.8304 5.75784 11.8085 5.75784 11.7647 5.73561C11.7209 5.71337 11.6771 5.75784 11.6771 5.8023C11.6771 5.93568 11.699 6.04684 11.7428 6.158C11.699 6.13576 11.6333 6.15799 11.6333 6.20246C11.6114 6.33584 11.6333 6.447 11.699 6.53592C11.6552 6.55815 11.6114 6.55815 11.5676 6.58038C11.5457 6.58038 11.5457 6.60262 11.5457 6.60262C11.5238 6.78046 11.5676 6.89162 11.6771 7.00277C11.5238 7.02501 11.3923 7.06947 11.2609 7.13616C11.1952 7.15839 11.1514 7.24732 11.2171 7.31401C11.3047 7.40293 11.3923 7.46963 11.5019 7.51409C11.458 7.58078 11.3485 7.58078 11.2609 7.60301C11.1295 7.62524 10.9762 7.64747 10.8448 7.6697C10.7791 7.69194 10.7572 7.75863 10.7791 7.82532C10.8229 7.91425 10.9105 8.00317 10.9981 8.04763H10.9762C10.9105 8.04763 10.9105 8.11433 10.9543 8.13656C10.8667 8.13656 10.7791 8.11433 10.6915 8.11433C10.6258 8.11433 10.6039 8.20325 10.6477 8.24771C10.6696 8.26994 10.6696 8.26994 10.6915 8.29217C10.6696 8.26994 10.6258 8.26994 10.6039 8.24771C10.582 8.22548 10.5382 8.24771 10.5382 8.29217C10.5382 8.40333 10.5601 8.49225 10.5601 8.60341C10.4287 8.49225 10.2754 8.47002 10.0782 8.49225C10.0563 8.49225 10.0344 8.51448 10.0344 8.53672C10.0344 8.60341 10.0344 8.64787 10.0125 8.71456C9.72781 8.53672 9.35548 8.60341 9.31168 8.93687C9.11456 8.80349 8.82984 8.69233 8.67653 8.89241C8.63272 8.9591 8.56702 9.00357 8.56702 9.11472C8.56702 9.15918 8.15088 9.11472 8.08518 9.13695C8.04138 9.13695 8.01947 9.18142 8.04138 9.20365C8.08518 9.33703 7.90996 9.24811 7.77855 9.24811C7.55954 9.27034 7.36242 9.55934 7.1215 9.44819C7.0996 9.42596 7.0558 9.44819 7.0558 9.49265C6.92439 9.55934 6.79297 9.64827 6.68347 9.71496C6.66156 9.71496 6.63966 9.73719 6.63966 9.75942C6.53015 9.82612 6.42065 9.89281 6.31114 9.9595C6.28924 9.9595 6.26733 9.98173 6.26733 10.004C6.31114 10.3152 5.8074 10.1596 5.71979 10.3374C5.69789 10.3597 5.69789 10.4041 5.71979 10.4486C5.71979 10.493 5.32556 10.4708 5.23795 10.4486C5.21605 10.4486 5.17225 10.4708 5.17225 10.5153C5.19415 10.6264 5.19415 10.6487 5.21605 10.6709C5.12844 10.6931 5.01893 10.7154 4.93133 10.7154C4.88752 10.7154 4.88752 10.7598 4.88752 10.782C4.88752 10.8265 4.90942 10.8487 4.90942 10.8932C4.75611 10.9154 4.6028 10.9377 4.44949 10.9599C4.42759 10.9599 4.38378 11.0044 4.40568 11.0266C4.40568 11.0711 4.40568 11.1377 4.40568 11.1822C4.18667 11.1377 3.96765 11.1377 3.85814 11.3601C3.81434 11.449 3.83624 11.5601 3.90194 11.6268C3.68293 11.7158 3.46391 11.8047 3.24489 11.9158C3.20109 11.9381 3.17919 11.9825 3.22299 12.027C3.28869 12.1159 3.3763 12.2048 3.44201 12.2715C3.17919 12.316 2.91636 12.3827 2.65354 12.4938C2.60974 12.5161 2.56594 12.5828 2.60974 12.6272C2.65354 12.6717 2.69735 12.7161 2.74115 12.7384C2.65354 12.7606 2.58784 12.7828 2.52213 12.8273C2.47833 12.8495 2.43453 12.9162 2.47833 12.9607C2.56594 13.0274 2.67544 13.0718 2.78495 13.0496C2.47833 13.1608 2.19361 13.3386 1.95269 13.5609C1.90888 13.6054 1.93078 13.6943 1.99649 13.7165C2.28121 13.7832 2.04029 13.9166 1.88698 14.0278C1.71177 14.1612 1.51465 14.2501 1.33944 14.3168C1.25183 14.3612 1.25183 14.4724 1.33944 14.5169C1.47085 14.5613 1.55845 14.5836 1.68987 14.5836C1.47085 14.9837 1.12042 15.2949 0.813795 15.6062C0.74809 15.6729 0.791893 15.784 0.879501 15.784C0.923304 15.784 1.36134 15.6951 1.27373 15.8063C1.16422 15.9174 1.01091 16.0063 0.901402 16.0953C0.726188 16.2287 0.594778 16.3843 0.550974 16.6288C0.550974 16.6955 0.572876 16.7622 0.660483 16.7622C0.704286 16.7622 0.726188 16.7622 0.769992 16.7622C0.704286 16.8067 0.638581 16.8511 0.572876 16.8956C0.507171 16.94 0.529072 17.0512 0.616679 17.0512C0.660483 17.0512 0.704286 17.0512 0.74809 17.0512C0.572876 17.1846 0.441465 17.3402 0.331957 17.5403C0.288153 17.6292 0.37576 17.6959 0.441465 17.6959C0.550974 17.6737 0.638581 17.6737 0.74809 17.6514C0.857599 17.6292 0.310055 18.0961 0.353858 18.0738C0.288153 18.1183 0.310055 18.185 0.310055 18.2739C0.310055 18.3406 0.397662 18.4295 0.485269 18.3628C0.572876 18.2961 0.660483 18.2517 0.74809 18.2072C0.529072 18.5629 0.156742 18.763 0.266251 19.2521C0.266251 19.2965 0.310055 19.3188 0.353858 19.3188C0.288153 19.4077 0.244349 19.4966 0.244349 19.5855C0.244349 19.63 0.266251 19.6745 0.310055 19.6745C0.331957 19.6745 0.353858 19.6745 0.397662 19.6522C0.288153 19.7189 0.112939 19.9412 0.310055 20.0079C0.353858 20.0302 0.397662 20.0302 0.463367 20.0302C0.529072 20.0302 0.660483 20.0302 0.594778 20.0969C0.485269 20.208 0.353858 20.2525 0.222448 20.3192C0.112939 20.3859 0.178644 20.5192 0.288153 20.5415C0.331957 20.5415 0.397662 20.5415 0.441465 20.5637C0.397662 20.6749 0.37576 20.8305 0.441465 20.9194C0.244349 21.2306 0.0910372 21.5641 0.00343016 21.942C-0.0184716 22.0309 0.0691354 22.0754 0.134841 22.0309C0.244349 21.9865 0.331957 21.9198 0.397662 21.8531C0.353858 22.2088 0.331957 22.5867 0.310055 22.9424C0.310055 23.0313 0.419564 23.0536 0.463367 22.9869C0.507171 22.9202 0.572876 22.8313 0.616679 22.7646C0.616679 23.0758 0.594778 23.3648 0.616679 23.676C0.616679 23.765 0.726188 23.765 0.769992 23.6983C0.791893 23.6316 0.8795 23.187 0.835697 23.5427C0.813795 23.6983 0.835697 23.8317 0.835697 23.9873C0.835697 24.2318 0.8795 24.4986 0.945206 24.7431C0.967107 24.8098 1.05471 24.8098 1.07662 24.7431C1.09852 24.632 1.14232 24.5208 1.16422 24.4097C1.18613 24.8098 1.25183 25.21 1.38324 25.5879C1.40514 25.6546 1.51465 25.6546 1.53655 25.5879C1.58036 25.4323 1.62416 25.2767 1.66796 25.1211C1.75557 25.4101 1.84318 25.7213 1.95269 26.0103C1.97459 26.0992 2.0841 26.077 2.106 25.9881C2.1279 25.8547 2.1279 25.7435 2.1498 25.6101C2.23741 25.8991 2.34692 26.2104 2.47833 26.4772C2.50023 26.5438 2.58784 26.4994 2.58784 26.4549C2.58784 26.366 2.56594 25.9881 2.60974 25.9881C2.74115 26.366 2.87256 26.7439 2.98207 27.0996C3.24489 27.9666 3.50771 28.8559 3.61722 29.7673C3.68293 30.2342 3.68293 30.7233 3.61722 31.1901C3.55151 31.6348 3.3325 32.2572 2.93827 32.5018C2.74115 32.6129 2.54403 32.6574 2.45643 32.9019C2.34692 33.2132 2.39072 33.4799 2.50023 33.7912C2.50023 33.8134 2.52213 33.8134 2.54403 33.8356C2.54403 33.8801 2.54403 33.9245 2.56594 33.969C2.56594 34.0135 2.65354 34.0135 2.65354 33.9468C2.65354 33.8579 2.65354 33.7689 2.67544 33.7022C2.87256 33.9023 3.24489 33.8356 3.50771 33.8134C3.94575 33.7912 4.40568 33.7022 4.6466 33.3243C4.95323 33.2132 5.39126 33.391 5.69789 33.4355C6.00451 33.5022 6.33304 33.5466 6.63966 33.6133C7.23101 33.7022 7.82236 33.7912 8.4137 33.8356C8.74223 33.8579 10.5601 34.1913 10.4287 33.4355C10.6258 33.5244 10.7572 33.68 10.8448 33.9023C10.8448 33.9023 10.8448 33.9246 10.8667 33.9246C10.8667 33.969 10.9324 33.969 10.9543 33.9246C11.1076 33.4799 10.8229 33.1465 10.4725 32.9242C10.6696 32.8352 10.8886 32.6129 11.02 32.8352C11.0638 32.9242 11.0857 33.0353 11.1076 33.1687C11.1295 33.2354 11.239 33.2354 11.239 33.1465V33.1242C11.1733 32.3906 10.6039 32.0349 9.92493 31.9904C9.42119 31.9682 8.91745 31.9904 8.4137 31.946C7.88806 31.9238 7.34052 31.8126 6.81488 31.8126C6.61776 31.7237 6.42065 31.6348 6.22353 31.5458C5.9169 31.4124 5.76359 31.1457 5.63218 30.8567C5.41316 30.3898 5.30366 29.8563 5.17225 29.345C5.01893 28.678 4.88752 28.0111 4.79992 27.3442C4.79992 27.3442 4.82182 27.3219 4.82182 27.2997C4.82182 27.1885 4.82182 27.0774 4.82182 26.9662C4.95323 27.1219 5.08464 27.2997 5.21605 27.4553C5.25985 27.4998 5.30366 27.4553 5.30366 27.4109C5.30366 27.4109 5.30366 27.0774 5.34746 27.1219C5.47887 27.2552 5.56648 27.3886 5.67599 27.522C5.71979 27.5665 5.78549 27.5665 5.78549 27.4998C5.78549 27.4109 5.78549 27.3219 5.8074 27.233C5.8512 27.2775 5.9169 27.3219 5.96071 27.3664C6.00451 27.3886 6.04832 27.3886 6.07022 27.3442C6.13592 27.3442 6.20163 27.3442 6.26733 27.3219C6.31114 27.3664 6.37684 27.3664 6.39874 27.2997C6.46445 27.2997 6.55206 27.3219 6.61776 27.3219C6.61776 27.3442 6.63966 27.3886 6.66156 27.3886C6.90248 27.4553 7.1434 27.522 7.38432 27.5887C7.38432 27.6332 7.45003 27.6554 7.49383 27.6109C7.60334 27.5442 7.66905 27.5665 7.69095 27.7221C7.71285 27.7443 7.75665 27.7666 7.80046 27.7443C7.84426 27.6999 7.90996 27.6554 7.95377 27.6109C7.97567 27.7443 8.04138 27.8555 8.19469 27.8555C8.3042 27.8555 8.348 27.811 8.4137 27.7443C8.43561 27.7221 8.43561 27.7221 8.45751 27.6999C8.45751 27.7221 8.43561 27.7666 8.43561 27.8332C8.43561 27.8999 8.52321 27.9444 8.56702 27.8999C8.74223 27.811 8.89554 27.7443 9.04886 27.6554C9.02695 27.7443 9.02695 27.8332 9.00505 27.9222C9.00505 28.0111 9.11456 28.0333 9.15836 27.9889C9.28977 27.8777 9.42119 27.7888 9.5745 27.7221C9.50879 27.8332 9.46499 27.9222 9.42119 28.0333C9.37738 28.1223 9.46499 28.2334 9.5745 28.1889C9.70591 28.1 9.83732 28.0333 9.96873 27.9444C9.94683 27.9889 9.94683 28.0333 9.94683 28.0778C9.94683 28.1223 9.96873 28.1445 9.99063 28.1667C10.2096 28.2779 10.4506 28.1223 10.6477 27.9444C10.6477 27.9666 10.6477 28.0111 10.6477 28.0333C10.6477 28.1 10.7353 28.1667 10.801 28.1223C10.9762 28.0333 11.1076 27.9222 11.2609 27.811C11.239 27.8555 11.239 27.8777 11.2171 27.9222C11.1952 27.9889 11.2609 28.0556 11.3266 28.0333C11.48 27.9889 11.5895 27.9222 11.699 27.8332C11.6771 28.1223 11.7647 28.4113 12.0056 28.6336C12.2903 28.9003 12.6407 29.1004 12.9255 29.3894C13.2321 29.7007 13.473 30.0786 13.6482 30.4787C13.7577 30.7233 13.8453 30.9456 13.8453 31.2124C13.8672 31.7014 13.4511 31.8348 13.0569 31.8571C12.7503 31.8793 12.4655 31.946 12.2027 32.1016C12.1808 32.1016 12.137 32.1238 12.137 32.1461C11.6771 32.4573 11.4361 33.1465 11.6333 33.68C11.6552 33.7245 11.7209 33.7467 11.7428 33.7022C11.7428 33.7022 11.7647 33.7022 11.7647 33.68C11.8085 33.4799 11.8304 33.3021 11.918 33.1465C11.9618 33.3021 12.0713 33.4132 12.2246 33.4577C12.7064 33.5466 13.1445 33.2354 13.6263 33.1909C14.1301 33.1242 14.6338 33.3688 15.1375 33.1909C15.3347 33.1242 15.488 32.9686 15.5537 32.7908C15.5537 32.7908 15.5537 32.813 15.5756 32.813C15.6194 32.9019 15.6851 32.9686 15.7508 33.0353C15.7508 33.0575 15.7727 33.0798 15.7946 33.0798C15.8165 33.0798 15.8165 33.102 15.8384 33.102C15.8603 33.1242 15.9041 33.1465 15.926 33.1465C16.605 33.5022 18.7075 34.3247 19.0361 33.4577C19.058 33.5022 19.0799 33.5466 19.0799 33.5911C19.058 33.68 19.2113 33.7467 19.2332 33.6355C19.2551 33.4577 19.2551 33.2799 19.2113 33.1242C19.6274 33.1909 20.0654 33.1687 20.5035 33.2354C20.9196 33.3021 21.3357 33.3688 21.7519 33.391C22.1242 33.4132 22.7594 33.3021 22.847 32.8797C22.9127 32.9686 22.9784 33.0353 23.066 33.102C23.066 33.1687 23.1755 33.1909 23.1755 33.102C23.2193 32.5462 22.7813 32.1461 22.2775 31.9682C22.2775 31.946 22.2775 31.9238 22.2556 31.9238C22.1899 31.9015 22.1461 31.9015 22.0804 31.9015C21.9709 31.8793 21.8614 31.8571 21.7738 31.8348C20.5692 31.7237 19.3646 31.7014 18.16 31.5236C17.5686 31.4347 16.9554 31.3902 16.5174 30.9456C16.145 30.5454 15.7289 30.212 15.2909 29.8785C14.8528 29.545 14.4586 29.1671 14.152 28.7003C14.0425 28.5002 13.9549 28.3001 13.8891 28.0778C14.4148 27.9889 14.8966 27.7666 15.3128 27.4331C15.2252 27.6332 15.028 27.8555 15.2909 28.0333C15.4004 28.1 15.5537 27.9889 15.6194 27.9444C15.8603 27.7443 16.1012 27.5442 16.2983 27.3219C16.2764 27.5442 16.2326 27.8777 16.4297 27.8555C16.6707 27.8332 16.8459 27.6332 16.9992 27.4109C16.9554 27.522 16.9335 27.6109 16.8897 27.7221C16.8678 27.811 16.9773 27.8555 17.043 27.811C17.2401 27.6554 17.4372 27.4776 17.6124 27.2997C17.5686 27.4553 17.5467 27.6109 17.7658 27.6109C17.8972 27.6109 18.0505 27.3664 18.1162 27.2775C18.2257 27.1663 18.3133 27.0329 18.4009 26.9218C18.598 26.6772 18.5104 26.9218 18.4666 27.0774C18.4447 27.1441 18.5104 27.1885 18.5542 27.1663C18.7951 27.1219 18.9265 26.8773 19.0142 26.655C19.0142 26.6772 19.0361 26.6995 19.058 26.7217H19.0799C19.1456 26.6995 19.1456 26.6105 19.1675 26.5438C19.1675 26.5883 19.2113 26.6105 19.2551 26.6105C19.5179 26.5661 19.715 26.1882 19.8464 25.9214C19.8683 26.0103 19.8902 26.0992 19.934 26.1882C19.9559 26.2104 19.9778 26.2326 19.9997 26.2326C20.2626 26.2104 20.394 25.8325 20.5035 25.5879C20.5473 25.6546 20.613 25.7213 20.6787 25.788C20.7225 25.8325 20.8101 25.8102 20.832 25.7435C20.8977 25.5435 20.9853 25.3878 21.0729 25.21C21.0948 25.2322 21.1386 25.2544 21.1605 25.2544C21.2262 25.2989 21.3138 25.2767 21.3138 25.1878C21.3357 24.9654 21.4891 24.9432 21.5986 24.7876C21.6205 24.7654 21.7081 24.2318 21.7957 24.343C21.8395 24.4097 21.9271 24.3874 21.949 24.3207C21.9709 24.2541 22.0147 24.1651 22.0366 24.0984V24.1207C22.0366 24.1874 22.1242 24.2096 22.168 24.1874C22.2118 24.1429 22.2556 24.0984 22.2775 24.0317C22.3432 24.1207 22.387 24.2096 22.4746 24.2985C22.5184 24.343 22.6279 24.3207 22.6279 24.2541C22.6937 23.9428 22.8032 23.6094 22.8689 23.2981C22.9346 23.4093 23.0222 23.5427 23.1098 23.4315C23.1974 23.3426 23.1974 23.2092 23.2193 23.098C23.2631 22.9647 23.3069 22.8313 23.3288 22.6979C23.3507 22.7423 23.3726 22.7646 23.3945 22.809C23.4164 22.8313 23.4383 22.8313 23.4602 22.809C23.504 22.8535 23.5259 22.898 23.5916 22.9424C23.6354 22.9647 23.6792 22.9647 23.7011 22.9202C23.7668 22.7423 23.8106 22.5423 23.8763 22.3644C23.9859 22.0532 23.964 22.0532 24.2487 22.2088C24.2925 22.231 24.3582 22.2088 24.3582 22.1643C24.4239 21.8086 24.4896 21.4529 24.5334 21.1195C24.5991 21.2084 24.6867 21.2751 24.8181 21.3196C24.8619 21.3418 24.9276 21.3196 24.9276 21.2529C24.9276 20.9194 24.9276 20.6082 24.9057 20.2747C25.0371 20.3859 25.1466 20.497 25.3219 20.3414C25.4533 20.2302 25.2781 19.7189 25.1905 19.4077C25.2781 19.4299 25.3657 19.4077 25.4314 19.341C25.6504 19.0965 25.519 18.8075 25.3876 18.5184C25.4314 18.5407 25.4971 18.5629 25.5409 18.5629C25.5847 18.5629 25.6285 18.5407 25.6285 18.4962C25.6285 18.1628 25.6066 17.8515 25.519 17.5403C25.5409 17.5625 25.5847 17.5847 25.6066 17.607C25.6504 17.6292 25.6942 17.607 25.6942 17.5625C25.6942 17.2735 25.6723 16.9845 25.6066 16.7177C25.6285 16.7177 25.6504 16.7177 25.6723 16.74C25.6942 16.74 25.738 16.7177 25.738 16.6955C25.738 16.4954 25.7161 16.2953 25.6942 16.1175C25.7161 16.1397 25.7599 16.1397 25.7599 16.1397C25.8037 16.162 25.8256 16.1175 25.8256 16.073C25.7818 15.873 25.738 15.6729 25.6723 15.4728C25.7161 15.4728 25.738 15.4283 25.7161 15.3839C25.6066 14.9393 25.5847 14.5169 25.5409 14.0722C25.5628 14.1389 25.5847 14.1834 25.6285 14.2501C25.6504 14.2946 25.7161 14.2946 25.7161 14.2279C25.7161 13.9611 25.6942 13.6943 25.6504 13.4275C25.6723 13.4275 25.6942 13.4053 25.7161 13.3831C25.738 13.183 25.738 13.0052 25.7161 12.8051C25.7161 12.8051 25.7161 12.8273 25.738 12.8273C25.7599 12.8495 25.7818 12.8495 25.7818 12.8051C25.7818 12.7384 25.7818 12.6717 25.7599 12.605C25.7818 12.605 25.8037 12.5828 25.8037 12.5605C25.8037 12.4271 25.8037 12.2938 25.8037 12.1826C25.8475 12.1826 25.8694 12.1604 25.8694 12.0937C25.8475 11.8936 25.8037 11.7158 25.8037 11.5157C25.8256 11.5157 25.8694 11.5157 25.8694 11.4712C25.8694 11.3156 25.8475 11.16 25.8475 11.0044C25.8475 10.9599 25.8475 10.9154 25.8475 10.8265C25.8694 10.8265 25.8913 10.8043 25.9132 10.782C25.9132 10.7598 25.9132 10.7376 25.9132 10.7154C25.957 10.6264 25.9789 10.5375 26.0008 10.4486C26.0227 10.4708 26.0665 10.4486 26.0884 10.4041C26.0884 10.3819 26.0884 10.3597 26.0884 10.3374C26.1103 10.4264 26.1541 10.5153 26.1979 10.6042C26.2198 10.6487 26.3074 10.6487 26.3074 10.582C26.3512 10.4264 26.3731 10.2485 26.395 10.0929V10.0707C26.417 10.0929 26.4389 10.0929 26.4608 10.0707C26.4827 10.0929 26.5265 10.1151 26.5265 10.0707C26.6141 9.89281 26.6798 9.71496 26.7236 9.51488C26.7455 9.55934 26.8112 9.55934 26.8331 9.51488C26.8769 9.35926 26.9207 9.22588 26.9645 9.09249C27.0521 8.87018 27.1178 8.58118 27.0302 9.07026C27.0083 9.15918 27.1397 9.18141 27.1397 9.11472C27.1835 8.89241 27.2492 8.6701 27.3149 8.47002C27.3149 8.51448 27.3149 8.55895 27.3149 8.60341C27.3149 8.64787 27.3149 8.6701 27.293 8.71456C27.293 8.78126 27.3806 8.80349 27.4025 8.73679C27.4244 8.64787 27.4463 8.55895 27.4901 8.47002C27.512 8.47002 27.5339 8.47002 27.5558 8.44779C27.6215 8.35887 27.6434 8.24771 27.7092 8.13656C27.7092 8.11433 27.7311 8.11433 27.7311 8.09209C27.8844 7.86978 28.0815 7.6697 28.2786 7.51409C28.5852 7.42516 28.9357 7.42516 29.2423 7.3807C29.8336 7.29178 30.2717 6.78046 30.8849 6.75823C30.9725 6.66931 31.0163 6.62485 30.9944 6.60262Z" fill="#F2F2F2"/>
</svg>
