<svg width="10" height="10" viewBox="0 0 10 10" fill="none" xmlns="http://www.w3.org/2000/svg">
<path d="M5 0C2.23333 0 0 2.23333 0 5C0 7.76667 2.23333 10 5 10C7.76667 10 10 7.76667 10 5C10 2.23333 7.76667 0 5 0ZM7.6 7.23333C7.53333 7.3 7.43333 7.33333 7.33333 7.33333C7.26667 7.33333 7.16667 7.3 7.1 7.26667L4.76667 5.26667C4.7 5.2 4.66667 5.1 4.66667 5V1.66667C4.66667 1.46667 4.8 1.33333 5 1.33333C5.2 1.33333 5.33333 1.46667 5.33333 1.66667V4.83333L7.56667 6.73333C7.7 6.86667 7.7 7.06667 7.6 7.23333Z" fill="#F6E6F9"/>
</svg>
